name rise38.3101peak57.3503fall81.6963.mot
datacolumns 19
datarows 21
range 19.35159400000000 19.38493300000000
endheader
time	ground_force1_vx	ground_force1_vy	ground_force1_vz	ground_force1_px	ground_force1_py	ground_force1_pz	ground_force2_vx	ground_force2_vy	ground_force2_vz	ground_force2_px	ground_force2_py	ground_force2_pz	ground_torque1_x	ground_torque1_y	ground_torque1_z	ground_torque2_x	ground_torque2_y	ground_torque2_z	
19.35159400000000	23.63174400000000	679.43580099999997	43.86856400000000	0.25394400000000	0.00000000000000	0.07741100000000	0.00000000000000	0.00000000000000	0.00000000000000	0.00000000000000	0.00000000000000	0.00000000000000	0.00000000000000	21.40493800000000	0.00000000000000	0.00000000000000	0.00000000000000	0.00000000000000	
19.35326100000000	23.25758300000000	680.11628199999996	43.81298300000000	0.25345000000000	0.00000000000000	0.07732800000000	0.00000000000000	0.00000000000000	0.00000000000000	0.00000000000000	0.00000000000000	0.00000000000000	0.00000000000000	21.43094400000000	0.00000000000000	0.00000000000000	0.00000000000000	0.00000000000000	
19.35493100000000	22.88445900000000	680.85764800000004	43.76043100000000	0.25299500000000	0.00000000000000	0.07724300000000	0.00000000000000	0.00000000000000	0.00000000000000	0.00000000000000	0.00000000000000	0.00000000000000	0.00000000000000	21.46124400000000	0.00000000000000	0.00000000000000	0.00000000000000	0.00000000000000	
19.35660200000000	22.51182700000000	681.65707799999996	43.71049100000000	0.25257500000000	0.00000000000000	0.07715600000000	0.00000000000000	0.00000000000000	0.00000000000000	0.00000000000000	0.00000000000000	0.00000000000000	0.00000000000000	21.49550900000000	0.00000000000000	0.00000000000000	0.00000000000000	0.00000000000000	
19.35826100000000	22.13913200000000	682.51176999999996	43.66275900000000	0.25218700000000	0.00000000000000	0.07706700000000	0.00000000000000	0.00000000000000	0.00000000000000	0.00000000000000	0.00000000000000	0.00000000000000	0.00000000000000	21.53341200000000	0.00000000000000	0.00000000000000	0.00000000000000	0.00000000000000	
19.35992800000000	21.76581700000000	683.41895799999998	43.61684500000000	0.25182700000000	0.00000000000000	0.07697800000000	0.00000000000000	0.00000000000000	0.00000000000000	0.00000000000000	0.00000000000000	0.00000000000000	0.00000000000000	21.57462600000000	0.00000000000000	0.00000000000000	0.00000000000000	0.00000000000000	
19.36160100000000	21.39132300000000	684.37591199999997	43.57237800000000	0.25149100000000	0.00000000000000	0.07688600000000	0.00000000000000	0.00000000000000	0.00000000000000	0.00000000000000	0.00000000000000	0.00000000000000	0.00000000000000	21.61882600000000	0.00000000000000	0.00000000000000	0.00000000000000	0.00000000000000	
19.36326100000000	21.01509000000000	685.37995599999999	43.52900500000000	0.25117700000000	0.00000000000000	0.07679400000000	0.00000000000000	0.00000000000000	0.00000000000000	0.00000000000000	0.00000000000000	0.00000000000000	0.00000000000000	21.66569400000000	0.00000000000000	0.00000000000000	0.00000000000000	0.00000000000000	
19.36493000000000	20.63656300000000	686.42846799999995	43.48639200000000	0.25088000000000	0.00000000000000	0.07670100000000	0.00000000000000	0.00000000000000	0.00000000000000	0.00000000000000	0.00000000000000	0.00000000000000	0.00000000000000	21.71491500000000	0.00000000000000	0.00000000000000	0.00000000000000	0.00000000000000	
19.36659900000000	20.25519300000000	687.51889200000005	43.44423000000000	0.25059700000000	0.00000000000000	0.07660700000000	0.00000000000000	0.00000000000000	0.00000000000000	0.00000000000000	0.00000000000000	0.00000000000000	0.00000000000000	21.76618100000000	0.00000000000000	0.00000000000000	0.00000000000000	0.00000000000000	
19.36826300000000	19.87043700000000	688.64874599999996	43.40222900000000	0.25032400000000	0.00000000000000	0.07651300000000	0.00000000000000	0.00000000000000	0.00000000000000	0.00000000000000	0.00000000000000	0.00000000000000	0.00000000000000	21.81919300000000	0.00000000000000	0.00000000000000	0.00000000000000	0.00000000000000	
19.36992800000000	19.48176400000000	689.81562199999996	43.36012600000000	0.25005600000000	0.00000000000000	0.07641800000000	0.00000000000000	0.00000000000000	0.00000000000000	0.00000000000000	0.00000000000000	0.00000000000000	0.00000000000000	21.87365900000000	0.00000000000000	0.00000000000000	0.00000000000000	0.00000000000000	
19.37160200000000	19.08865900000000	691.01719700000001	43.31768400000000	0.24979100000000	0.00000000000000	0.07632400000000	0.00000000000000	0.00000000000000	0.00000000000000	0.00000000000000	0.00000000000000	0.00000000000000	0.00000000000000	21.92929900000000	0.00000000000000	0.00000000000000	0.00000000000000	0.00000000000000	
19.37326800000000	18.69061900000000	692.25123499999995	43.27469200000000	0.24952400000000	0.00000000000000	0.07622900000000	0.00000000000000	0.00000000000000	0.00000000000000	0.00000000000000	0.00000000000000	0.00000000000000	0.00000000000000	21.98584300000000	0.00000000000000	0.00000000000000	0.00000000000000	0.00000000000000	
19.37493200000000	18.28716400000000	693.51559299999997	43.23096500000000	0.24925100000000	0.00000000000000	0.07613500000000	0.00000000000000	0.00000000000000	0.00000000000000	0.00000000000000	0.00000000000000	0.00000000000000	0.00000000000000	22.04303300000000	0.00000000000000	0.00000000000000	0.00000000000000	0.00000000000000	
19.37660200000000	17.87783200000000	694.80822400000000	43.18634900000000	0.24897000000000	0.00000000000000	0.07604100000000	0.00000000000000	0.00000000000000	0.00000000000000	0.00000000000000	0.00000000000000	0.00000000000000	0.00000000000000	22.10062400000000	0.00000000000000	0.00000000000000	0.00000000000000	0.00000000000000	
19.37826500000000	17.46218700000000	696.12717799999996	43.14071800000000	0.24867700000000	0.00000000000000	0.07594900000000	0.00000000000000	0.00000000000000	0.00000000000000	0.00000000000000	0.00000000000000	0.00000000000000	0.00000000000000	22.15838500000000	0.00000000000000	0.00000000000000	0.00000000000000	0.00000000000000	
19.37992900000000	17.03981800000000	697.47060499999998	43.09397500000000	0.24836800000000	0.00000000000000	0.07585700000000	0.00000000000000	0.00000000000000	0.00000000000000	0.00000000000000	0.00000000000000	0.00000000000000	0.00000000000000	22.21610100000000	0.00000000000000	0.00000000000000	0.00000000000000	0.00000000000000	
19.38160300000000	16.61034300000000	698.83676000000003	43.04605400000000	0.24804000000000	0.00000000000000	0.07576600000000	0.00000000000000	0.00000000000000	0.00000000000000	0.00000000000000	0.00000000000000	0.00000000000000	0.00000000000000	22.27356900000000	0.00000000000000	0.00000000000000	0.00000000000000	0.00000000000000	
19.38326100000000	16.17341000000000	700.22399900000005	42.99691900000000	0.24768900000000	0.00000000000000	0.07567600000000	0.00000000000000	0.00000000000000	0.00000000000000	0.00000000000000	0.00000000000000	0.00000000000000	0.00000000000000	22.33060300000000	0.00000000000000	0.00000000000000	0.00000000000000	0.00000000000000	
19.38493300000000	15.72870000000000	701.63078199999995	42.94656700000000	0.24731500000000	0.00000000000000	0.07558800000000	0.00000000000000	0.00000000000000	0.00000000000000	0.00000000000000	0.00000000000000	0.00000000000000	0.00000000000000	22.38703500000000	0.00000000000000	0.00000000000000	0.00000000000000	0.00000000000000	
